<svg width="200" height="40" viewBox="0 0 200 40" fill="none" xmlns="http://www.w3.org/2000/svg">
<rect width="200" height="40" fill="#191A23"/>
<path d="M29.512 25.4054C28.808 26.6854 27.672 27.6734 26.104 28.3694C24.536 29.0574 22.752 29.4014 20.752 29.4014C18.152 29.4014 15.936 28.7934 14.104 27.5774C12.272 26.3534 10.864 24.7134 9.88002 22.6574L13.192 20.8094C13.88 22.1214 14.736 23.1614 15.76 23.9294C16.792 24.6894 17.96 25.0734 19.264 25.0734C20.672 25.0734 21.84 24.7134 22.768 23.9934C23.704 23.2654 24.176 22.3134 24.176 21.1374C24.176 20.2174 23.944 19.4654 23.48 18.8814C23.016 18.2894 22.408 17.8174 21.648 17.4734C20.888 17.1214 20.04 16.8974 19.096 16.7934L15.944 16.2094C13.112 15.7454 10.96 14.9054 9.48802 13.6014C8.01602 12.2894 7.28002 10.5134 7.28002 8.26538C7.28002 6.00138 7.97602 4.19338 9.36802 2.84138C10.768 1.48138 12.648 0.79338 15.008 0.79338C17.008 0.79338 18.736 1.15338 20.192 1.87338C21.656 2.58538 22.864 3.61738 23.816 4.97738L20.504 6.78538C19.984 6.07338 19.344 5.48938 18.584 5.03338C17.832 4.56938 17.008 4.33738 16.112 4.33738C14.752 4.33738 13.624 4.70538 12.728 5.44138C11.832 6.16938 11.384 7.10538 11.384 8.24938C11.384 9.17738 11.592 9.94538 12.008 10.5534C12.432 11.1614 12.984 11.6334 13.664 11.9694C14.352 12.3054 15.096 12.5294 15.896 12.6414L19.248 13.2494C21.928 13.7134 24.088 14.5374 25.728 15.7214C27.368 16.9054 28.248 18.5294 28.368 20.5934C28.496 22.6494 27.768 24.2814 26.192 25.4814Z" fill="#B9FF66"/>
<path d="M39.696 28.9854C38.696 29.3134 37.64 29.4774 36.528 29.4774C34.72 29.4774 33.312 28.9854 32.304 27.9934C31.304 26.9934 30.808 25.6814 30.808 24.0574V1.12938H34.904V24.0654C34.904 25.0494 35.184 25.7534 35.744 26.1614C36.312 26.5614 37.032 26.7614 37.904 26.7614C38.776 26.7614 39.496 26.5614 40.064 26.1614C40.632 25.7534 40.912 25.0494 40.912 24.0654V1.12938H45.008V28.0174C44.384 28.4094 43.616 28.7294 42.704 28.9774C41.792 29.2254 40.792 29.3454 39.696 29.3454V28.9854Z" fill="#B9FF66"/>
<path d="M51.92 29.1374C51.2 29.3534 50.36 29.4614 49.392 29.4614C47.784 29.4614 46.544 28.9214 45.672 27.8414C44.808 26.7614 44.376 25.3374 44.376 23.5614V1.12938H48.472V23.4974C48.472 24.4734 48.744 25.1774 49.288 25.6014C49.84 26.0174 50.536 26.2254 51.376 26.2254C52.216 26.2254 52.912 26.0174 53.464 25.6014C54.016 25.1774 54.288 24.4734 54.288 23.4974V1.12938H58.384V23.5614C58.384 25.3374 57.952 26.7614 57.088 27.8414C56.224 28.9214 54.984 29.4614 53.368 29.4614C52.688 29.4614 52.144 29.3134 51.736 29.0174V29.1374Z" fill="#B9FF66"/>
<path d="M62.304 1.12938H66.4V16.7934H77.104V1.12938H81.192V16.7934H91.904V1.12938H95.992V29.1374C95.584 29.3534 95.176 29.4614 94.768 29.4614C93.152 29.4614 91.912 28.9214 91.04 27.8414C90.176 26.7614 89.744 25.3374 89.744 23.5614V20.8414H81.192V23.5614C81.192 25.3374 80.76 26.7614 79.888 27.8414C79.016 28.9214 77.776 29.4614 76.16 29.4614C75.48 29.4614 74.936 29.3134 74.528 29.0174V29.1374H66.4V20.8414H62.304V29.1374C61.896 29.3534 61.488 29.4614 61.08 29.4614C59.464 29.4614 58.224 28.9214 57.352 27.8414C56.488 26.7614 56.056 25.3374 56.056 23.5614V1.12938H62.304Z" fill="#B9FF66"/>
<path d="M104.976 1.12938V29.0654H109.072V1.12938H104.976Z" fill="#B9FF66"/>
<path d="M121.784 25.4054C121.08 26.6854 119.944 27.6734 118.376 28.3694C116.808 29.0574 115.024 29.4014 113.024 29.4014C110.424 29.4014 108.208 28.7934 106.376 27.5774C104.544 26.3534 103.136 24.7134 102.152 22.6574L105.464 20.8094C106.152 22.1214 107.008 23.1614 108.032 23.9294C109.064 24.6894 110.232 25.0734 111.536 25.0734C112.944 25.0734 114.112 24.7134 115.04 23.9934C115.976 23.2654 116.448 22.3134 116.448 21.1374C116.448 20.2174 116.216 19.4654 115.752 18.8814C115.288 18.2894 114.68 17.8174 113.92 17.4734C113.16 17.1214 112.312 16.8974 111.368 16.7934L108.216 16.2094C105.384 15.7454 103.232 14.9054 101.76 13.6014C100.288 12.2894 99.552 10.5134 99.552 8.26538C99.552 6.00138 100.248 4.19338 101.64 2.84138C103.04 1.48138 104.92 0.79338 107.28 0.79338C109.28 0.79338 111.008 1.15338 112.464 1.87338C113.928 2.58538 115.136 3.61738 116.088 4.97738L112.776 6.78538C112.256 6.07338 111.616 5.48938 110.856 5.03338C110.104 4.56938 109.28 4.33738 108.384 4.33738C107.024 4.33738 105.896 4.70538 104.992 5.44138C104.096 6.16938 103.648 7.10538 103.648 8.24938C103.648 9.17738 103.856 9.94538 104.272 10.5534C104.696 11.1614 105.248 11.6334 105.928 11.9694C106.616 12.3054 107.36 12.5294 108.16 12.6414L111.52 13.2494C114.2 13.7134 116.36 14.5374 118 15.7214C119.64 16.9054 120.52 18.5294 120.64 20.5934C120.768 22.6494 120.04 24.2814 118.464 25.4814Z" fill="#B9FF66"/>
<path d="M131.784 1.12938V29.0654H135.88V1.12938H131.784Z" fill="#B9FF66"/>
<path d="M143.904 28.9854C142.904 29.3134 141.848 29.4774 140.736 29.4774C138.928 29.4774 137.52 28.9854 136.512 27.9934C135.512 26.9934 135.016 25.6814 135.016 24.0574V1.12938H139.112V24.0654C139.112 25.0494 139.392 25.7534 139.952 26.1614C140.52 26.5614 141.24 26.7614 142.112 26.7614C142.984 26.7614 143.704 26.5614 144.272 26.1614C144.84 25.7534 145.12 25.0494 145.12 24.0654V1.12938H149.216V28.0174C148.592 28.4094 147.824 28.7294 146.912 28.9774C146.008 29.2254 145.008 29.3454 143.904 29.3454V28.9854Z" fill="#B9FF66"/>
<path d="M157.064 1.12938H161.16V29.0654H157.064V1.12938Z" fill="#B9FF66"/>
<path d="M173.872 25.4054C173.168 26.6854 172.032 27.6734 170.464 28.3694C168.896 29.0574 167.112 29.4014 165.112 29.4014C162.512 29.4014 160.296 28.7934 158.464 27.5774C156.632 26.3534 155.224 24.7134 154.24 22.6574L157.552 20.8094C158.24 22.1214 159.096 23.1614 160.12 23.9294C161.152 24.6894 162.32 25.0734 163.624 25.0734C165.032 25.0734 166.2 24.7134 167.128 23.9934C168.064 23.2654 168.536 22.3134 168.536 21.1374C168.536 20.2174 168.304 19.4654 167.84 18.8814C167.376 18.2894 166.768 17.8174 166.008 17.4734C165.248 17.1214 164.4 16.8974 163.456 16.7934L160.304 16.2094C157.472 15.7454 155.32 14.9054 153.848 13.6014C152.376 12.2894 151.64 10.5134 151.64 8.26538C151.64 6.00138 152.336 4.19338 153.728 2.84138C155.128 1.48138 157.008 0.79338 159.368 0.79338C161.368 0.79338 163.096 1.15338 164.552 1.87338C166.016 2.58538 167.224 3.61738 168.176 4.97738L164.864 6.78538C164.344 6.07338 163.704 5.48938 162.944 5.03338C162.192 4.56938 161.368 4.33738 160.472 4.33738C159.112 4.33738 157.984 4.70538 157.088 5.44138C156.192 6.16938 155.744 7.10538 155.744 8.24938C155.744 9.17738 155.952 9.94538 156.368 10.5534C156.792 11.1614 157.344 11.6334 158.024 11.9694C158.712 12.3054 159.456 12.5294 160.256 12.6414L163.616 13.2494C166.296 13.7134 168.456 14.5374 170.096 15.7214C171.736 16.9054 172.616 18.5294 172.736 20.5934C172.864 22.6494 172.136 24.2814 170.56 25.4814Z" fill="#B9FF66"/>
<path d="M181.776 28.9854C180.776 29.3134 179.72 29.4774 178.608 29.4774C176.8 29.4774 175.392 28.9854 174.384 27.9934C173.384 26.9934 172.888 25.6814 172.888 24.0574V1.12938H176.984V24.0654C176.984 25.0494 177.264 25.7534 177.824 26.1614C178.392 26.5614 179.112 26.7614 179.984 26.7614C180.856 26.7614 181.576 26.5614 182.144 26.1614C182.712 25.7534 182.992 25.0494 182.992 24.0654V1.12938H187.088V28.0174C186.464 28.4094 185.696 28.7294 184.784 28.9774C183.872 29.2254 182.872 29.3454 181.776 29.3454V28.9854Z" fill="#B9FF66"/>
<path d="M190.544 1.12938H194.64V29.0654H190.544V1.12938Z" fill="#B9FF66"/>
</svg>
